# xmcd
#
# Track frame offsets:
#	150
#	10152
#	25724
#	40739
#	51366
#	68433
#	79764
#	91177
#	102223
#	110338
#	122526
#	131784
#
# Disc length: 1904 seconds
#
# Revision: 0
# Processed by: cddbd v1.5.1PL0 Copyright (c) Steve Scherf et al.
# Submitted via: dBpowerAMP V4.0
#
DISCID=8b076e0c
DTITLE=Del McCoury - My Dixie Home
DYEAR=1981
DGENRE=Bluegrass
TTITLE0=White House Blues
TTITLE1=Eli Renfro
TTITLE2=Are You Coming Back To Me?
TTITLE3=I've Endured
TTITLE4=Call Collect On Christmas
TTITLE5=A Good Man Like Me
TTITLE6=Rock Hearts
TTITLE7=J.D. Jones
TTITLE8=My Dixie Home
TTITLE9=Hang Your Head In Shame
TTITLE10=Drifting With The Tide
TTITLE11=I've Been Crying
EXTD=Bluegrass!!  But no bluegrass genre, so...country is closest.
EXTT0=
EXTT1=
EXTT2=
EXTT3=
EXTT4=
EXTT5=
EXTT6=
EXTT7=
EXTT8=
EXTT9=
EXTT10=
EXTT11=
PLAYORDER=
